# xmcd
#
# Track frame offsets:
#	150
#	43270
#	57392
#	70437
#	82972
#	114827
#	136900
#	153265
#	167450
#	181217
#	195775
#	211742
#	227737
#	240685
#	270245
#
# Disc length: 3800 seconds
#
# Revision: 1
# Processed by: cddbd v1.5.1PL0 Copyright (c) Steve Scherf et al.
# Submitted via: CDex 1.50Beta5
#
DISCID=ba0ed60f
DTITLE=アート・ブレイキー - BFC JAZZ
DYEAR=1999
DGENRE=Jazz
TTITLE0=アート・ブレイキー/モーニン
TTITLE1=ナット・キング・コール/イッツ・オンリー・ア・ペイパー・ムーン
TTITLE2=ペギー・リー/時の過ぎるまま
TTITLE3=セシリア・ノービー/ワイルド・イズ・ザ・ウインド
TTITLE4=キャノンボール・アダレイ/ラブ・フォー・セール
TTITLE5=メル・トーメ/バードランドの子守唄
TTITLE6=サラ・ボーン/ユーブ・チェンジド
TTITLE7=ダイナ・ショア/アイル・ビー・シーイング・ユー
TTITLE8=チェット・ベイカー/バット・ノット・フォー・ミー
TTITLE9=アイク・ケベック/ロイエ
TTITLE10=ジョー・ウィリアムス/浮気はやめた
TTITLE11=アネット/サンジェルマン・デ・プレのランデブー
TTITLE12=ブロッサム・ディアリー/コルコバド
TTITLE13=デクスター・ゴードン/チーズ・ケイク
TTITLE14=ビリー・ホリデイ/トラベリン・ライト
EXTD=
EXTT0=
EXTT1=
EXTT2=
EXTT3=
EXTT4=
EXTT5=
EXTT6=
EXTT7=
EXTT8=
EXTT9=
EXTT10=
EXTT11=
EXTT12=
EXTT13=
EXTT14=
PLAYORDER=
